# Blender v2.93.0 OBJ File: 'Modular_Pipes.blend'
# www.blender.org
mtllib Pipe.mtl
o Pipe_2m_open_Cylinder.006
v 1.000000 0.250000 0.000000
v 1.000000 0.216506 -0.125000
v 1.000000 0.125000 -0.216506
v 1.000000 0.000000 -0.250000
v 1.000000 -0.125000 -0.216506
v 1.000000 -0.216506 -0.125000
v 1.000000 -0.250000 0.000000
v 1.000000 -0.216506 0.125000
v 1.000000 -0.125000 0.216506
v 1.000000 -0.000000 0.250000
v 1.000000 0.125000 0.216506
v 1.000000 0.216506 0.125000
v -0.577171 0.194903 0.000000
v -0.577171 0.168791 -0.097451
v -0.577171 0.097451 -0.168791
v -0.577171 -0.000000 -0.194903
v -0.577171 -0.097451 -0.168791
v -0.577171 -0.168791 -0.097451
v -0.577171 -0.194903 0.000000
v -0.577171 -0.168791 0.097451
v -0.577171 -0.097452 0.168791
v -0.577171 -0.000000 0.194903
v -0.577171 0.097451 0.168791
v -0.577171 0.168791 0.097452
v 1.000000 0.168791 0.097452
v 1.000000 0.097451 0.168791
v 1.000000 -0.000000 0.194903
v 1.000000 -0.097452 0.168791
v 1.000000 -0.168791 0.097451
v 1.000000 -0.194903 0.000000
v 1.000000 -0.168791 -0.097451
v 1.000000 -0.097451 -0.168791
v 1.000000 -0.000000 -0.194903
v 1.000000 0.097451 -0.168791
v 1.000000 0.168791 -0.097451
v 1.000000 0.194903 0.000000
v -0.913134 0.250000 0.000000
v -0.913134 0.216506 -0.125000
v -0.913134 0.125000 -0.216506
v -0.913134 0.000000 -0.250000
v -0.913134 -0.125000 -0.216506
v -0.913134 -0.216506 -0.125000
v -0.913134 -0.250000 0.000000
v -0.913134 -0.216506 0.125000
v -0.913134 -0.125000 0.216506
v -0.913134 -0.000000 0.250000
v -0.913134 0.125000 0.216506
v -0.913134 0.216506 0.125000
v -0.913134 0.296307 -0.171073
v -0.913134 0.342146 -0.000000
v -0.913134 0.171073 -0.296307
v -0.913134 0.000000 -0.342146
v -0.913134 -0.171073 -0.296307
v -0.913134 -0.296307 -0.171073
v -0.913134 -0.342146 -0.000000
v -0.913134 -0.296307 0.171073
v -0.913134 -0.171073 0.296307
v -0.913134 -0.000000 0.342146
v -0.913134 0.171073 0.296307
v -0.913134 0.296307 0.171073
v -1.000000 0.296307 -0.171073
v -1.000000 0.342146 -0.000000
v -1.000000 0.171073 -0.296307
v -1.000000 0.000000 -0.342146
v -1.000000 -0.171073 -0.296307
v -1.000000 -0.296307 -0.171073
v -1.000000 -0.342146 -0.000000
v -1.000000 -0.296307 0.171073
v -1.000000 -0.171073 0.296307
v -1.000000 -0.000000 0.342146
v -1.000000 0.171073 0.296307
v -1.000000 0.296307 0.171073
v -0.891756 0.288290 -0.024548
v -0.915465 0.288290 -0.024548
v -0.891756 0.270808 -0.005732
v -0.915465 0.270808 -0.005732
v -0.891756 0.278362 0.018816
v -0.915465 0.278362 0.018816
v -0.891756 0.303399 0.024548
v -0.915465 0.303399 0.024548
v -0.891756 0.320881 0.005732
v -0.915465 0.320881 0.005732
v -0.891756 0.313327 -0.018816
v -0.915465 0.313327 -0.018816
v -0.891756 0.180776 -0.217353
v -0.915465 0.180776 -0.217353
v -0.891756 0.181498 -0.191679
v -0.915465 0.181498 -0.191679
v -0.891756 0.204094 -0.179467
v -0.915465 0.204094 -0.179467
v -0.891756 0.225967 -0.192930
v -0.915465 0.225967 -0.192930
v -0.891756 0.225245 -0.218604
v -0.915465 0.225245 -0.218604
v -0.891756 0.202649 -0.230815
v -0.915465 0.202649 -0.230815
v -0.891756 -0.019892 -0.295861
v -0.915465 -0.019892 -0.295861
v -0.891756 -0.009274 -0.272474
v -0.915465 -0.009274 -0.272474
v -0.891756 0.016288 -0.269976
v -0.915465 0.016288 -0.269976
v -0.891756 0.031233 -0.290865
v -0.915465 0.031233 -0.290865
v -0.891756 0.020615 -0.314251
v -0.915465 0.020615 -0.314251
v -0.891756 -0.004947 -0.316749
v -0.915465 -0.004947 -0.316749
v -0.891756 -0.222598 -0.219035
v -0.915465 -0.222598 -0.219035
v -0.891756 -0.219426 -0.193548
v -0.915465 -0.219426 -0.193548
v -0.891756 -0.195767 -0.183551
v -0.915465 -0.195767 -0.183551
v -0.891756 -0.175280 -0.199042
v -0.915465 -0.175280 -0.199042
v -0.891756 -0.178453 -0.224530
v -0.915465 -0.178453 -0.224530
v -0.891756 -0.202112 -0.234526
v -0.915465 -0.202112 -0.234526
v -0.891756 -0.316203 -0.000090
v -0.915465 -0.316203 -0.000090
v -0.891756 -0.302829 0.021838
v -0.915465 -0.302829 0.021838
v -0.891756 -0.277152 0.021219
v -0.915465 -0.277152 0.021219
v -0.891756 -0.264850 -0.001328
v -0.915465 -0.264850 -0.001328
v -0.891756 -0.278224 -0.023255
v -0.915465 -0.278224 -0.023255
v -0.891756 -0.303901 -0.022636
v -0.915465 -0.303901 -0.022636
v -0.891756 -0.222817 0.215699
v -0.915465 -0.222817 0.215699
v -0.891756 -0.208827 0.237239
v -0.915465 -0.208827 0.237239
v -0.891756 -0.183178 0.235893
v -0.915465 -0.183178 0.235893
v -0.891756 -0.171519 0.213007
v -0.915465 -0.171519 0.213007
v -0.891756 -0.185509 0.191468
v -0.915465 -0.185509 0.191468
v -0.891756 -0.211158 0.192814
v -0.915465 -0.211158 0.192814
v -0.891756 -0.024407 0.298960
v -0.915465 -0.024407 0.298960
v -0.891756 -0.010417 0.320500
v -0.915465 -0.010417 0.320500
v -0.891756 0.015232 0.319154
v -0.915465 0.015232 0.319154
v -0.891756 0.026891 0.296269
v -0.915465 0.026891 0.296269
v -0.891756 0.012901 0.274729
v -0.915465 0.012901 0.274729
v -0.891756 -0.012748 0.276075
v -0.915465 -0.012748 0.276075
v -0.891756 0.183501 0.210992
v -0.915465 0.183501 0.210992
v -0.891756 0.204973 0.225085
v -0.915465 0.204973 0.225085
v -0.891756 0.227914 0.213536
v -0.915465 0.227914 0.213536
v -0.891756 0.229383 0.187894
v -0.915465 0.229383 0.187894
v -0.891756 0.207911 0.173801
v -0.915465 0.207911 0.173801
v -0.891756 0.184970 0.185350
v -0.915465 0.184970 0.185350
vt 0.008973 0.249321
vt 0.607300 0.208849
vt 0.607300 0.249321
vt 0.008973 0.289793
vt 0.607300 0.289793
vt 0.008973 0.330266
vt 0.607300 0.330266
vt 0.008973 0.370738
vt 0.607300 0.370738
vt 0.008973 0.411211
vt 0.607300 0.411210
vt 0.008973 0.451683
vt 0.607300 0.451682
vt 0.008973 0.492155
vt 0.607300 0.492155
vt 0.008973 0.046959
vt 0.607300 0.006487
vt 0.607300 0.046959
vt 0.607300 0.087432
vt 0.008973 0.127904
vt 0.607300 0.127904
vt 0.008973 0.168376
vt 0.607300 0.168376
vt 0.479087 0.555408
vt 0.442253 0.545539
vt 0.469218 0.518574
vt 0.256055 0.730454
vt 0.482713 0.744953
vt 0.256055 0.744953
vt 0.256055 0.686957
vt 0.482713 0.701456
vt 0.256055 0.701456
vt 0.256055 0.614462
vt 0.482713 0.628961
vt 0.256055 0.628961
vt 0.256055 0.570965
vt 0.482713 0.585464
vt 0.256055 0.585464
vt 0.482713 0.715955
vt 0.256055 0.715955
vt 0.482713 0.643460
vt 0.256055 0.643460
vt 0.256055 0.657959
vt 0.482713 0.672458
vt 0.256055 0.672458
vt 0.482713 0.599963
vt 0.256055 0.599963
vt 0.482713 0.730454
vt 0.482713 0.657959
vt 0.482713 0.686957
vt 0.482713 0.614462
vt 0.693038 0.573478
vt 0.633088 0.658479
vt 0.601143 0.626534
vt 0.693038 0.969491
vt 0.787456 0.925852
vt 0.799149 0.969491
vt 0.944099 0.824540
vt 0.900461 0.730121
vt 0.944099 0.718428
vt 0.591725 0.730121
vt 0.548087 0.718429
vt 0.787456 0.617116
vt 0.704731 0.617116
vt 0.633088 0.884489
vt 0.704731 0.925852
vt 0.891044 0.916435
vt 0.900461 0.812847
vt 0.891044 0.626534
vt 0.799149 0.573478
vt 0.548087 0.824540
vt 0.601143 0.916435
vt 0.859099 0.884490
vt 0.859098 0.658479
vt 0.591725 0.812847
vt 0.676713 0.913290
vt 0.645812 0.876549
vt 0.681086 0.889007
vt 0.723907 0.942658
vt 0.725732 0.915538
vt 0.570122 0.753075
vt 0.549819 0.708775
vt 0.574767 0.715018
vt 0.569650 0.839089
vt 0.575736 0.790826
vt 0.591115 0.825569
vt 0.613140 0.648827
vt 0.631313 0.602767
vt 0.644307 0.625531
vt 0.719005 0.889388
vt 0.598066 0.873489
vt 0.615070 0.854836
vt 0.589427 0.679405
vt 0.594733 0.630501
vt 0.551337 0.798186
vt 0.674363 0.585040
vt 0.721670 0.607833
vt 0.680959 0.611276
vt 0.634523 0.898918
vt 0.581168 0.890822
vt 0.545822 0.653825
vt 0.566932 0.666696
vt 0.668240 0.561161
vt 0.725732 0.577814
vt 0.622860 0.920163
vt 0.526152 0.702006
vt 0.527757 0.804447
vt 0.544529 0.753686
vt 0.619603 0.580828
vt 0.671010 0.937505
vt 0.520023 0.753452
vt 0.548674 0.851342
vt 0.061154 0.922774
vt 0.013019 0.903578
vt 0.065313 0.892970
vt 0.044395 0.944822
vt 0.047565 0.929443
vt 0.056493 0.955575
vt 0.009385 0.963068
vt 0.071309 0.950497
vt 0.056075 0.992347
vt 0.061083 0.923379
vt 0.012948 0.904183
vt 0.065243 0.893575
vt 0.072846 0.934264
vt 0.101535 0.967083
vt 0.101535 0.919074
vt 0.044325 0.945427
vt 0.047494 0.930048
vt 0.056423 0.956180
vt 0.009315 0.963673
vt 0.071239 0.951102
vt 0.056004 0.992952
vt 0.072776 0.934869
vt 0.101464 0.967688
vt 0.101464 0.919679
vt 0.062261 0.921674
vt 0.014126 0.902478
vt 0.066421 0.891870
vt 0.045503 0.943722
vt 0.048672 0.928343
vt 0.057601 0.954475
vt 0.010493 0.961968
vt 0.072417 0.949397
vt 0.057182 0.991247
vt 0.073954 0.933164
vt 0.102642 0.965983
vt 0.102642 0.917974
vt 0.060157 0.921217
vt 0.012022 0.902020
vt 0.064316 0.891413
vt 0.043398 0.943265
vt 0.046568 0.927885
vt 0.055496 0.954018
vt 0.008388 0.961510
vt 0.070312 0.948939
vt 0.055078 0.990789
vt 0.071849 0.932707
vt 0.100538 0.965525
vt 0.100538 0.917517
vt 0.062326 0.918442
vt 0.014190 0.899246
vt 0.066485 0.888639
vt 0.045567 0.940491
vt 0.048737 0.925111
vt 0.057665 0.951243
vt 0.010557 0.958736
vt 0.072481 0.946165
vt 0.057246 0.988015
vt 0.074018 0.929933
vt 0.102707 0.962751
vt 0.102707 0.914742
vt 0.061483 0.924010
vt 0.013347 0.904814
vt 0.065642 0.894207
vt 0.044724 0.946059
vt 0.047894 0.930679
vt 0.056822 0.956811
vt 0.009714 0.964304
vt 0.071638 0.951733
vt 0.056403 0.993583
vt 0.073175 0.935501
vt 0.101863 0.968319
vt 0.101863 0.920310
vt 0.062641 0.920264
vt 0.014506 0.901068
vt 0.066801 0.890460
vt 0.045882 0.942312
vt 0.049052 0.926933
vt 0.057980 0.953065
vt 0.010872 0.960558
vt 0.072796 0.947987
vt 0.057562 0.989837
vt 0.074333 0.931754
vt 0.103022 0.964573
vt 0.103022 0.916564
vt 0.063601 0.914665
vt 0.015465 0.895469
vt 0.067760 0.884861
vt 0.046842 0.936714
vt 0.050012 0.921334
vt 0.058940 0.947466
vt 0.011832 0.954959
vt 0.073756 0.942388
vt 0.058522 0.984238
vt 0.075293 0.926155
vt 0.103982 0.958973
vt 0.103982 0.910965
vt 0.008973 0.208848
vt 0.719890 0.663129
vt 0.864494 0.624383
vt 0.931604 0.874843
vt 0.008973 0.006486
vt 0.008973 0.087431
vt 0.479087 0.524272
vt 0.484786 0.534142
vt 0.484786 0.545539
vt 0.469218 0.561107
vt 0.457821 0.561107
vt 0.447951 0.555408
vt 0.442253 0.534142
vt 0.447951 0.524272
vt 0.457821 0.518574
vt 0.482713 0.570965
vt 0.577724 0.612421
vt 0.721167 0.551855
vt 0.931604 0.663129
vt 0.970351 0.730239
vt 0.970351 0.807732
vt 0.864493 0.913589
vt 0.787001 0.913589
vt 0.719890 0.874843
vt 0.681144 0.807732
vt 0.681144 0.730239
vt 0.787001 0.624383
vn 0.0000 0.9659 0.2588
vn 0.0000 0.9659 -0.2588
vn 0.0000 0.7071 -0.7071
vn 0.0000 0.2588 -0.9659
vn 0.0000 -0.2588 -0.9659
vn 0.0000 -0.7071 -0.7071
vn 0.0000 -0.9659 -0.2588
vn 0.0000 -0.9659 0.2588
vn 0.0000 -0.7071 0.7071
vn 0.0000 -0.2588 0.9659
vn 0.0000 0.2588 0.9659
vn 1.0000 0.0000 0.0000
vn 0.0000 0.7071 0.7071
vn 0.0000 -0.7326 -0.6807
vn 0.0000 -0.9558 0.2941
vn 0.0000 -0.2232 0.9748
vn 0.0000 0.7326 0.6807
vn 0.0000 -0.9996 0.0281
vn 0.0000 0.9558 -0.2941
vn 0.0000 0.2232 -0.9748
vn 0.0000 -0.4755 0.8797
vn 0.0000 0.5242 0.8516
vn 0.0000 0.9996 -0.0281
vn 0.0000 0.4755 -0.8797
vn 0.0000 -0.5242 -0.8516
vn 0.0000 -0.9106 0.4134
vn 0.0000 -0.0973 0.9953
vn 0.0000 0.8133 0.5819
vn 0.0000 0.9105 -0.4134
vn 0.0000 0.0973 -0.9953
vn 0.0000 -0.8133 -0.5819
vn 0.0000 -0.9923 0.1235
vn 0.0000 -0.3892 0.9211
vn 0.0000 0.6031 0.7976
vn 0.0000 0.9923 -0.1235
vn 0.0000 0.3892 -0.9211
vn 0.0000 -0.6031 -0.7976
vn 0.0000 -0.8537 0.5207
vn 0.0000 0.0241 0.9997
vn 0.0000 0.8778 0.4790
vn 0.0000 0.8537 -0.5207
vn 0.0000 -0.0241 -0.9997
vn 0.0000 -0.8778 -0.4790
vn 0.0000 -0.8386 0.5447
vn 0.0000 0.0524 0.9986
vn 0.0000 0.8910 0.4539
vn 0.0000 0.8386 -0.5447
vn 0.0000 -0.0524 -0.9986
vn 0.0000 -0.8910 -0.4539
vn 0.0000 -0.5487 0.8360
vn 0.0000 0.4496 0.8932
vn 0.0000 0.9984 0.0572
vn 0.0000 0.5487 -0.8360
vn 0.0000 -0.4496 -0.8932
vn 0.0000 -0.9984 -0.0572
vn -1.0000 0.0000 0.0000
vn 0.0000 -0.4754 0.8797
vn 0.0000 -0.9105 0.4134
vn 0.0000 0.9106 -0.4134
usemtl Pipe
s off
f 37/1/1 12/2/1 1/3/1
f 38/4/2 1/3/2 2/5/2
f 39/6/3 2/5/3 3/7/3
f 40/8/4 3/7/4 4/9/4
f 41/10/5 4/9/5 5/11/5
f 42/12/6 5/11/6 6/13/6
f 43/14/7 6/13/7 7/15/7
f 44/16/8 7/17/8 8/18/8
f 9/19/9 44/16/9 8/18/9
f 46/20/10 9/19/10 10/21/10
f 47/22/11 10/21/11 11/23/11
f 23/24/12 19/25/12 15/26/12
f 31/27/1 19/28/1 30/29/1
f 34/30/10 16/31/10 33/32/10
f 27/33/5 23/34/5 26/35/5
f 30/36/2 20/37/2 29/38/2
f 33/32/11 17/39/11 32/40/11
f 26/35/6 24/41/6 25/42/6
f 36/43/8 14/44/8 35/45/8
f 29/38/3 21/46/3 28/47/3
f 32/40/13 18/48/13 31/27/13
f 25/42/7 13/49/7 36/43/7
f 35/45/9 15/50/9 34/30/9
f 28/47/4 22/51/4 27/33/4
f 12/52/12 36/53/12 1/54/12
f 5/55/12 31/56/12 6/57/12
f 8/58/12 28/59/12 9/60/12
f 1/54/12 35/61/12 2/62/12
f 12/52/12 26/63/12 25/64/12
f 5/55/12 33/65/12 32/66/12
f 7/67/12 29/68/12 8/58/12
f 10/69/12 26/63/12 11/70/12
f 3/71/12 33/65/12 4/72/12
f 6/57/12 30/73/12 7/67/12
f 9/60/12 27/74/12 10/69/12
f 2/62/12 34/75/12 3/71/12
f 54/76/12 41/77/12 42/78/12
f 67/79/7 54/76/7 55/80/7
f 37/81/12 60/82/12 48/83/12
f 51/84/12 38/85/12 39/86/12
f 46/87/12 57/88/12 45/89/12
f 55/80/12 42/78/12 43/90/12
f 52/91/12 39/86/12 40/92/12
f 47/93/12 58/94/12 46/87/12
f 49/95/12 37/81/12 38/85/12
f 56/96/12 43/97/12 44/98/12
f 53/99/12 40/92/12 41/77/12
f 60/82/12 47/93/12 48/83/12
f 45/89/12 56/96/12 44/98/12
f 64/100/4 51/84/4 52/91/4
f 71/101/11 58/94/11 59/102/11
f 68/103/8 55/104/8 56/96/8
f 65/105/5 52/91/5 53/99/5
f 72/106/13 59/102/13 60/82/13
f 61/107/2 50/108/2 49/95/2
f 69/109/9 56/96/9 57/88/9
f 66/110/6 53/99/6 54/76/6
f 62/111/1 60/82/1 50/108/1
f 63/112/3 49/95/3 51/84/3
f 58/94/10 69/109/10 57/88/10
f 73/113/14 76/114/14 74/115/14
f 77/116/15 76/114/15 75/117/15
f 79/118/16 78/119/16 77/116/16
f 81/120/17 80/121/17 79/118/17
f 85/122/18 88/123/18 86/124/18
f 83/125/19 82/126/19 81/120/19
f 73/113/20 84/127/20 83/125/20
f 77/116/12 75/117/12 83/125/12
f 89/128/21 88/123/21 87/129/21
f 91/130/22 90/131/22 89/128/22
f 93/132/23 92/133/23 91/130/23
f 95/134/24 94/135/24 93/132/24
f 85/122/25 96/136/25 95/134/25
f 89/128/12 87/129/12 95/134/12
f 97/137/26 100/138/26 98/139/26
f 101/140/27 100/138/27 99/141/27
f 103/142/28 102/143/28 101/140/28
f 105/144/29 104/145/29 103/142/29
f 107/146/30 106/147/30 105/144/30
f 97/137/31 108/148/31 107/146/31
f 101/140/12 99/141/12 107/146/12
f 109/149/32 112/150/32 110/151/32
f 113/152/33 112/150/33 111/153/33
f 115/154/34 114/155/34 113/152/34
f 117/156/35 116/157/35 115/154/35
f 119/158/36 118/159/36 117/156/36
f 109/149/37 120/160/37 119/158/37
f 113/152/12 111/153/12 119/158/12
f 121/161/38 124/162/38 122/163/38
f 125/164/39 124/162/39 123/165/39
f 127/166/40 126/167/40 125/164/40
f 129/168/41 128/169/41 127/166/41
f 131/170/42 130/171/42 129/168/42
f 121/161/43 132/172/43 131/170/43
f 125/164/12 123/165/12 131/170/12
f 133/173/44 136/174/44 134/175/44
f 137/176/45 136/174/45 135/177/45
f 139/178/46 138/179/46 137/176/46
f 141/180/47 140/181/47 139/178/47
f 143/182/48 142/183/48 141/180/48
f 133/173/49 144/184/49 143/182/49
f 137/176/12 135/177/12 143/182/12
f 145/185/44 148/186/44 146/187/44
f 149/188/45 148/186/45 147/189/45
f 151/190/46 150/191/46 149/188/46
f 153/192/47 152/193/47 151/190/47
f 155/194/48 154/195/48 153/192/48
f 145/185/49 156/196/49 155/194/49
f 149/188/12 147/189/12 155/194/12
f 157/197/50 160/198/50 158/199/50
f 161/200/51 160/198/51 159/201/51
f 163/202/52 162/203/52 161/200/52
f 165/204/53 164/205/53 163/202/53
f 167/206/54 166/207/54 165/204/54
f 157/197/55 168/208/55 167/206/55
f 161/200/12 159/201/12 167/206/12
f 48/209/13 11/23/13 12/2/13
f 71/210/56 62/211/56 65/212/56
f 37/1/1 48/209/1 12/2/1
f 38/4/2 37/1/2 1/3/2
f 39/6/3 38/4/3 2/5/3
f 40/8/4 39/6/4 3/7/4
f 41/10/5 40/8/5 4/9/5
f 42/12/6 41/10/6 5/11/6
f 43/14/7 42/12/7 6/13/7
f 44/16/8 43/213/8 7/17/8
f 9/19/9 45/214/9 44/16/9
f 46/20/10 45/214/10 9/19/10
f 47/22/11 46/20/11 10/21/11
f 15/26/12 14/215/12 13/216/12
f 13/216/12 24/217/12 15/26/12
f 24/217/12 23/24/12 15/26/12
f 23/24/12 22/218/12 21/219/12
f 21/219/12 20/220/12 19/25/12
f 19/25/12 18/221/12 17/222/12
f 17/222/12 16/223/12 19/25/12
f 16/223/12 15/26/12 19/25/12
f 23/24/12 21/219/12 19/25/12
f 31/27/1 18/48/1 19/28/1
f 34/30/10 15/50/10 16/31/10
f 27/33/5 22/51/5 23/34/5
f 30/36/2 19/224/2 20/37/2
f 33/32/11 16/31/11 17/39/11
f 26/35/6 23/34/6 24/41/6
f 36/43/8 13/49/8 14/44/8
f 29/38/3 20/37/3 21/46/3
f 32/40/13 17/39/13 18/48/13
f 25/42/7 24/41/7 13/49/7
f 35/45/9 14/44/9 15/50/9
f 28/47/4 21/46/4 22/51/4
f 12/52/12 25/64/12 36/53/12
f 5/55/12 32/66/12 31/56/12
f 8/58/12 29/68/12 28/59/12
f 1/54/12 36/53/12 35/61/12
f 12/52/12 11/70/12 26/63/12
f 5/55/12 4/72/12 33/65/12
f 7/67/12 30/73/12 29/68/12
f 10/69/12 27/74/12 26/63/12
f 3/71/12 34/75/12 33/65/12
f 6/57/12 31/56/12 30/73/12
f 9/60/12 28/59/12 27/74/12
f 2/62/12 35/61/12 34/75/12
f 54/76/12 53/99/12 41/77/12
f 67/79/7 66/110/7 54/76/7
f 37/81/12 50/108/12 60/82/12
f 51/84/12 49/95/12 38/85/12
f 46/87/12 58/94/12 57/88/12
f 55/80/12 54/76/12 42/78/12
f 52/91/12 51/84/12 39/86/12
f 47/93/12 59/102/12 58/94/12
f 49/95/12 50/108/12 37/81/12
f 56/96/12 55/104/12 43/97/12
f 53/99/12 52/91/12 40/92/12
f 60/82/12 59/102/12 47/93/12
f 45/89/12 57/88/12 56/96/12
f 64/100/4 63/112/4 51/84/4
f 71/101/11 70/225/11 58/94/11
f 68/103/8 67/226/8 55/104/8
f 65/105/5 64/100/5 52/91/5
f 72/106/13 71/101/13 59/102/13
f 61/107/2 62/111/2 50/108/2
f 69/109/9 68/103/9 56/96/9
f 66/110/6 65/105/6 53/99/6
f 62/111/1 72/106/1 60/82/1
f 63/112/3 61/107/3 49/95/3
f 58/94/10 70/225/10 69/109/10
f 73/113/14 75/117/14 76/114/14
f 77/116/15 78/119/15 76/114/15
f 79/118/16 80/121/16 78/119/16
f 81/120/17 82/126/17 80/121/17
f 85/122/18 87/129/18 88/123/18
f 83/125/19 84/127/19 82/126/19
f 73/113/20 74/115/20 84/127/20
f 75/117/12 73/113/12 83/125/12
f 83/125/12 81/120/12 79/118/12
f 79/118/12 77/116/12 83/125/12
f 89/128/57 90/131/57 88/123/57
f 91/130/22 92/133/22 90/131/22
f 93/132/23 94/135/23 92/133/23
f 95/134/24 96/136/24 94/135/24
f 85/122/25 86/124/25 96/136/25
f 87/129/12 85/122/12 95/134/12
f 95/134/12 93/132/12 91/130/12
f 91/130/12 89/128/12 95/134/12
f 97/137/58 99/141/58 100/138/58
f 101/140/27 102/143/27 100/138/27
f 103/142/28 104/145/28 102/143/28
f 105/144/59 106/147/59 104/145/59
f 107/146/30 108/148/30 106/147/30
f 97/137/31 98/139/31 108/148/31
f 99/141/12 97/137/12 107/146/12
f 107/146/12 105/144/12 103/142/12
f 103/142/12 101/140/12 107/146/12
f 109/149/32 111/153/32 112/150/32
f 113/152/33 114/155/33 112/150/33
f 115/154/34 116/157/34 114/155/34
f 117/156/35 118/159/35 116/157/35
f 119/158/36 120/160/36 118/159/36
f 109/149/37 110/151/37 120/160/37
f 111/153/12 109/149/12 119/158/12
f 119/158/12 117/156/12 115/154/12
f 115/154/12 113/152/12 119/158/12
f 121/161/38 123/165/38 124/162/38
f 125/164/39 126/167/39 124/162/39
f 127/166/40 128/169/40 126/167/40
f 129/168/41 130/171/41 128/169/41
f 131/170/42 132/172/42 130/171/42
f 121/161/43 122/163/43 132/172/43
f 123/165/12 121/161/12 131/170/12
f 131/170/12 129/168/12 127/166/12
f 127/166/12 125/164/12 131/170/12
f 133/173/44 135/177/44 136/174/44
f 137/176/45 138/179/45 136/174/45
f 139/178/46 140/181/46 138/179/46
f 141/180/47 142/183/47 140/181/47
f 143/182/48 144/184/48 142/183/48
f 133/173/49 134/175/49 144/184/49
f 135/177/12 133/173/12 143/182/12
f 143/182/12 141/180/12 139/178/12
f 139/178/12 137/176/12 143/182/12
f 145/185/44 147/189/44 148/186/44
f 149/188/45 150/191/45 148/186/45
f 151/190/46 152/193/46 150/191/46
f 153/192/47 154/195/47 152/193/47
f 155/194/48 156/196/48 154/195/48
f 145/185/49 146/187/49 156/196/49
f 147/189/12 145/185/12 155/194/12
f 155/194/12 153/192/12 151/190/12
f 151/190/12 149/188/12 155/194/12
f 157/197/50 159/201/50 160/198/50
f 161/200/51 162/203/51 160/198/51
f 163/202/52 164/205/52 162/203/52
f 165/204/53 166/207/53 164/205/53
f 167/206/54 168/208/54 166/207/54
f 157/197/55 158/199/55 168/208/55
f 159/201/12 157/197/12 167/206/12
f 167/206/12 165/204/12 163/202/12
f 163/202/12 161/200/12 167/206/12
f 48/209/13 47/22/13 11/23/13
f 62/211/56 61/227/56 63/228/56
f 63/228/56 64/229/56 62/211/56
f 64/229/56 65/212/56 62/211/56
f 65/212/56 66/230/56 67/231/56
f 67/231/56 68/232/56 65/212/56
f 68/232/56 69/233/56 65/212/56
f 69/233/56 70/234/56 71/210/56
f 71/210/56 72/235/56 62/211/56
f 69/233/56 71/210/56 65/212/56
