# Blender v2.93.0 OBJ File: 'Modular_Pipes.blend'
# www.blender.org
mtllib Pipe.mtl
o Pipe_1m_Cap_1_Cylinder.009
v 0.000000 0.250000 0.086866
v 0.125000 0.216506 0.086866
v 0.216506 0.125000 0.086866
v 0.250000 0.000000 0.086866
v 0.216506 -0.125000 0.086866
v 0.125000 -0.216506 0.086866
v 0.000000 -0.250000 0.086866
v -0.125000 -0.216506 0.086866
v -0.216506 -0.125000 0.086866
v -0.250000 -0.000000 0.086866
v -0.216506 0.125000 0.086866
v -0.125000 0.216506 0.086866
v 0.171073 0.296307 0.086866
v 0.000000 0.342146 0.086866
v 0.296307 0.171073 0.086866
v 0.342146 0.000000 0.086866
v 0.296307 -0.171073 0.086866
v 0.171073 -0.296307 0.086866
v 0.000000 -0.342146 0.086866
v -0.171073 -0.296307 0.086866
v -0.296307 -0.171073 0.086866
v -0.342146 -0.000000 0.086866
v -0.296307 0.171073 0.086866
v -0.171073 0.296307 0.086866
v 0.171073 0.296307 0.000000
v 0.000000 0.342146 0.000000
v 0.296307 0.171073 0.000000
v 0.342146 0.000000 0.000000
v 0.296307 -0.171073 0.000000
v 0.171073 -0.296307 0.000000
v 0.000000 -0.342146 0.000000
v -0.171073 -0.296307 -0.000000
v -0.296307 -0.171073 0.000000
v -0.342146 -0.000000 -0.000000
v -0.296307 0.171073 -0.000000
v -0.171073 0.296307 0.000000
v 0.024548 0.288290 0.108244
v 0.024548 0.288290 0.084535
v 0.005732 0.270808 0.108244
v 0.005732 0.270808 0.084535
v -0.018816 0.278362 0.108244
v -0.018816 0.278362 0.084535
v -0.024548 0.303399 0.108244
v -0.024548 0.303399 0.084535
v -0.005732 0.320881 0.108244
v -0.005732 0.320881 0.084535
v 0.018816 0.313327 0.108244
v 0.018816 0.313327 0.084535
v 0.217353 0.180776 0.108244
v 0.217353 0.180776 0.084535
v 0.191679 0.181498 0.108244
v 0.191679 0.181498 0.084535
v 0.179467 0.204094 0.108244
v 0.179467 0.204094 0.084535
v 0.192930 0.225967 0.108244
v 0.192930 0.225967 0.084535
v 0.218604 0.225245 0.108244
v 0.218604 0.225245 0.084535
v 0.230815 0.202649 0.108244
v 0.230815 0.202649 0.084535
v 0.295861 -0.019892 0.108244
v 0.295861 -0.019892 0.084535
v 0.272474 -0.009274 0.108244
v 0.272474 -0.009274 0.084535
v 0.269976 0.016288 0.108244
v 0.269976 0.016288 0.084535
v 0.290865 0.031233 0.108244
v 0.290865 0.031233 0.084535
v 0.314251 0.020615 0.108244
v 0.314251 0.020615 0.084535
v 0.316749 -0.004947 0.108244
v 0.316749 -0.004947 0.084535
v 0.219035 -0.222598 0.108244
v 0.219035 -0.222598 0.084535
v 0.193548 -0.219426 0.108244
v 0.193548 -0.219426 0.084535
v 0.183551 -0.195767 0.108244
v 0.183551 -0.195767 0.084535
v 0.199042 -0.175280 0.108244
v 0.199042 -0.175280 0.084535
v 0.224530 -0.178453 0.108244
v 0.224530 -0.178453 0.084535
v 0.234526 -0.202112 0.108244
v 0.234526 -0.202112 0.084535
v 0.000090 -0.316203 0.108244
v 0.000090 -0.316203 0.084535
v -0.021838 -0.302829 0.108244
v -0.021838 -0.302829 0.084535
v -0.021219 -0.277152 0.108244
v -0.021219 -0.277152 0.084535
v 0.001328 -0.264850 0.108244
v 0.001328 -0.264850 0.084535
v 0.023255 -0.278224 0.108244
v 0.023255 -0.278224 0.084535
v 0.022636 -0.303901 0.108244
v 0.022636 -0.303901 0.084535
v -0.215699 -0.222817 0.108244
v -0.215699 -0.222817 0.084535
v -0.237239 -0.208827 0.108244
v -0.237239 -0.208827 0.084535
v -0.235893 -0.183178 0.108244
v -0.235893 -0.183178 0.084535
v -0.213007 -0.171519 0.108244
v -0.213007 -0.171519 0.084535
v -0.191468 -0.185509 0.108244
v -0.191468 -0.185509 0.084535
v -0.192814 -0.211158 0.108244
v -0.192814 -0.211158 0.084535
v -0.298960 -0.024407 0.108244
v -0.298960 -0.024407 0.084535
v -0.320500 -0.010417 0.108244
v -0.320500 -0.010417 0.084535
v -0.319154 0.015232 0.108244
v -0.319154 0.015232 0.084535
v -0.296269 0.026891 0.108244
v -0.296269 0.026891 0.084535
v -0.274729 0.012901 0.108244
v -0.274729 0.012901 0.084535
v -0.276075 -0.012748 0.108244
v -0.276075 -0.012748 0.084535
v -0.210992 0.183501 0.108244
v -0.210992 0.183501 0.084535
v -0.225085 0.204973 0.108244
v -0.225085 0.204973 0.084535
v -0.213536 0.227914 0.108244
v -0.213536 0.227914 0.084535
v -0.187894 0.229383 0.108244
v -0.187894 0.229383 0.084535
v -0.173801 0.207911 0.108244
v -0.173801 0.207911 0.084535
v -0.185350 0.184970 0.108244
v -0.185350 0.184970 0.084535
v 0.000000 0.250000 0.570490
v 0.125000 0.216506 0.570490
v 0.216506 0.125000 0.570490
v 0.250000 0.000000 0.570490
v 0.216506 -0.125000 0.570490
v 0.125000 -0.216506 0.570490
v 0.000000 -0.250000 0.570490
v -0.125000 -0.216506 0.570490
v -0.216506 -0.125000 0.570490
v -0.250000 -0.000000 0.570490
v -0.216506 0.125000 0.570490
v -0.125000 0.216506 0.570490
v 0.000000 0.217862 0.570490
v 0.108931 0.188674 0.570490
v 0.188674 0.108931 0.570490
v 0.217861 0.000000 0.570490
v 0.188674 -0.108931 0.570490
v 0.108931 -0.188674 0.570490
v 0.000000 -0.217861 0.570490
v -0.108931 -0.188674 0.570490
v -0.188674 -0.108931 0.570490
v -0.217861 -0.000000 0.570490
v -0.188674 0.108931 0.570490
v -0.108931 0.188673 0.570490
v 0.000000 0.217862 0.149037
v 0.108931 0.188674 0.149037
v 0.188674 0.108931 0.149037
v 0.217861 0.000000 0.149037
v 0.188674 -0.108931 0.149037
v 0.108931 -0.188674 0.149037
v 0.000000 -0.217861 0.149037
v -0.108931 -0.188674 0.149037
v -0.188674 -0.108931 0.149037
v -0.217861 -0.000000 0.149037
v -0.188674 0.108931 0.149037
v -0.108931 0.188673 0.149037
vt 0.676713 0.913290
vt 0.645812 0.876549
vt 0.681086 0.889007
vt 0.723907 0.942658
vt 0.725732 0.915538
vt 0.570122 0.753075
vt 0.549819 0.708775
vt 0.574767 0.715018
vt 0.591115 0.825569
vt 0.551337 0.798186
vt 0.575736 0.790826
vt 0.594733 0.630501
vt 0.644307 0.625531
vt 0.613140 0.648827
vt 0.719005 0.889388
vt 0.615070 0.854836
vt 0.569650 0.839089
vt 0.566932 0.666696
vt 0.589427 0.679405
vt 0.544529 0.753686
vt 0.674363 0.585040
vt 0.721670 0.607833
vt 0.680959 0.611276
vt 0.634523 0.898918
vt 0.581168 0.890822
vt 0.598066 0.873489
vt 0.545822 0.653825
vt 0.668240 0.561161
vt 0.725732 0.577814
vt 0.622860 0.920163
vt 0.526152 0.702006
vt 0.520023 0.753452
vt 0.619603 0.580828
vt 0.631313 0.602767
vt 0.671010 0.937505
vt 0.548674 0.851342
vt 0.577724 0.612421
vt 0.061154 0.922774
vt 0.013019 0.903578
vt 0.065313 0.892970
vt 0.044395 0.944822
vt 0.047565 0.929443
vt 0.056493 0.955575
vt 0.009385 0.963068
vt 0.101535 0.967083
vt 0.056075 0.992347
vt 0.061083 0.923379
vt 0.012948 0.904183
vt 0.065243 0.893575
vt 0.072846 0.934264
vt 0.071309 0.950497
vt 0.101535 0.919074
vt 0.044325 0.945427
vt 0.047494 0.930048
vt 0.056423 0.956180
vt 0.009315 0.963673
vt 0.071239 0.951102
vt 0.056004 0.992952
vt 0.072776 0.934869
vt 0.101464 0.967688
vt 0.101464 0.919679
vt 0.062261 0.921674
vt 0.014126 0.902478
vt 0.066421 0.891870
vt 0.045503 0.943722
vt 0.048672 0.928343
vt 0.057601 0.954475
vt 0.010493 0.961968
vt 0.072417 0.949397
vt 0.057182 0.991247
vt 0.073954 0.933164
vt 0.102642 0.965983
vt 0.102642 0.917974
vt 0.060157 0.921217
vt 0.012022 0.902020
vt 0.064316 0.891413
vt 0.043398 0.943265
vt 0.046568 0.927885
vt 0.055496 0.954018
vt 0.008388 0.961510
vt 0.070312 0.948939
vt 0.055078 0.990789
vt 0.071849 0.932707
vt 0.100538 0.965525
vt 0.100538 0.917517
vt 0.062326 0.918442
vt 0.014190 0.899246
vt 0.066485 0.888639
vt 0.045567 0.940491
vt 0.048737 0.925111
vt 0.057665 0.951243
vt 0.010557 0.958736
vt 0.102707 0.962751
vt 0.057246 0.988015
vt 0.074018 0.929933
vt 0.072481 0.946165
vt 0.102707 0.914742
vt 0.061483 0.924010
vt 0.013347 0.904814
vt 0.065642 0.894207
vt 0.047894 0.930679
vt 0.009714 0.964304
vt 0.056822 0.956811
vt 0.044724 0.946059
vt 0.071638 0.951733
vt 0.056403 0.993583
vt 0.073175 0.935501
vt 0.101863 0.968319
vt 0.101863 0.920310
vt 0.062641 0.920264
vt 0.014506 0.901068
vt 0.066801 0.890460
vt 0.045882 0.942312
vt 0.049052 0.926933
vt 0.057980 0.953065
vt 0.010872 0.960558
vt 0.072796 0.947987
vt 0.057562 0.989837
vt 0.074333 0.931754
vt 0.103022 0.964573
vt 0.103022 0.916564
vt 0.063601 0.914665
vt 0.015465 0.895469
vt 0.067760 0.884861
vt 0.046842 0.936714
vt 0.050012 0.921334
vt 0.058940 0.947466
vt 0.011832 0.954959
vt 0.073756 0.942388
vt 0.058522 0.984238
vt 0.075293 0.926155
vt 0.103982 0.958973
vt 0.103982 0.910965
vt 0.681144 0.807732
vt 0.719890 0.663129
vt 0.864494 0.624383
vt 0.028677 0.246099
vt 0.152925 0.276571
vt 0.029241 0.283484
vt 0.053712 0.062157
vt 0.166241 0.122735
vt 0.045083 0.098334
vt 0.042182 0.395269
vt 0.173225 0.402218
vt 0.050074 0.432194
vt 0.029994 0.208806
vt 0.152308 0.245416
vt 0.155140 0.307757
vt 0.031691 0.320867
vt 0.160094 0.152857
vt 0.038221 0.134849
vt 0.188131 0.435669
vt 0.058431 0.466900
vt 0.159009 0.338967
vt 0.036017 0.358155
vt 0.155851 0.183460
vt 0.033182 0.171694
vt 0.063977 0.026179
vt 0.175091 0.093518
vt 0.164750 0.370313
vt 0.153279 0.214351
vt 0.161272 0.276268
vt 0.174098 0.124757
vt 0.173158 0.368466
vt 0.181698 0.399191
vt 0.160635 0.245540
vt 0.163495 0.307016
vt 0.168187 0.154306
vt 0.195979 0.429287
vt 0.167375 0.337747
vt 0.164067 0.184443
vt 0.189700 0.064325
vt 0.182392 0.096466
vt 0.161565 0.214901
vt 0.259572 0.591395
vt 0.326320 0.609255
vt 0.259572 0.609255
vt 0.259572 0.627116
vt 0.326320 0.644977
vt 0.259572 0.644977
vt 0.259572 0.537813
vt 0.326320 0.555674
vt 0.259572 0.555674
vt 0.259572 0.698559
vt 0.326320 0.716419
vt 0.259572 0.716419
vt 0.326320 0.627116
vt 0.326320 0.662837
vt 0.259572 0.662837
vt 0.259572 0.573534
vt 0.326320 0.573534
vt 0.326320 0.734280
vt 0.259572 0.734280
vt 0.326320 0.680698
vt 0.259572 0.680698
vt 0.326320 0.591395
vt 0.259572 0.519952
vt 0.326320 0.537813
vt 0.326320 0.698559
vt 0.473474 0.571130
vt 0.425328 0.558230
vt 0.460573 0.522984
vt 0.721167 0.551855
vt 0.527757 0.804447
vt 0.931604 0.663129
vt 0.931604 0.874843
vt 0.970351 0.730239
vt 0.970351 0.807732
vt 0.864493 0.913589
vt 0.787001 0.913589
vt 0.719890 0.874843
vt 0.681144 0.730239
vt 0.787001 0.624383
vt 0.195979 0.070016
vt 0.326320 0.519952
vt 0.473474 0.530432
vt 0.480922 0.543333
vt 0.480922 0.558230
vt 0.460573 0.578579
vt 0.445677 0.578579
vt 0.432776 0.571130
vt 0.425328 0.543333
vt 0.432776 0.530432
vt 0.445677 0.522984
vn 0.0000 0.0000 1.0000
vn 0.2588 -0.9659 0.0000
vn 0.9659 0.2588 0.0000
vn -0.9659 0.2588 0.0000
vn -0.2588 -0.9659 0.0000
vn 0.9659 -0.2588 0.0000
vn -0.7071 0.7071 0.0000
vn 0.2588 0.9659 0.0000
vn -0.7071 -0.7071 0.0000
vn 0.7071 -0.7071 0.0000
vn -0.2588 0.9659 0.0000
vn 0.7071 0.7071 0.0000
vn -0.9659 -0.2588 0.0000
vn 0.6807 -0.7326 0.0000
vn -0.2941 -0.9558 0.0000
vn -0.9748 -0.2232 -0.0000
vn -0.6807 0.7326 0.0000
vn -0.0281 -0.9996 0.0000
vn 0.2941 0.9558 0.0000
vn 0.9748 0.2232 0.0000
vn -0.8797 -0.4755 0.0000
vn -0.8516 0.5242 0.0000
vn 0.0281 0.9996 0.0000
vn 0.8797 0.4755 0.0000
vn 0.8516 -0.5242 0.0000
vn -0.4134 -0.9106 0.0000
vn -0.9953 -0.0973 0.0000
vn -0.5819 0.8133 0.0000
vn 0.4134 0.9105 0.0000
vn 0.9953 0.0973 0.0000
vn 0.5819 -0.8133 0.0000
vn -0.1235 -0.9923 0.0000
vn -0.9211 -0.3892 0.0000
vn -0.7976 0.6031 0.0000
vn 0.1235 0.9923 0.0000
vn 0.9211 0.3892 0.0000
vn 0.7976 -0.6031 0.0000
vn -0.5207 -0.8537 0.0000
vn -0.9997 0.0241 -0.0000
vn -0.4790 0.8778 -0.0000
vn 0.5207 0.8537 0.0000
vn 0.9997 -0.0241 0.0000
vn 0.4790 -0.8778 -0.0000
vn -0.5447 -0.8386 0.0000
vn -0.9986 0.0524 0.0000
vn -0.4539 0.8910 0.0000
vn 0.5447 0.8386 0.0000
vn 0.9986 -0.0524 0.0000
vn 0.4539 -0.8910 0.0000
vn -0.8360 -0.5487 0.0000
vn -0.8932 0.4496 0.0000
vn -0.0572 0.9984 0.0000
vn 0.8360 0.5487 0.0000
vn 0.8932 -0.4496 0.0000
vn 0.0572 -0.9984 0.0000
vn 0.0000 -0.0000 -1.0000
vn -0.8797 -0.4754 0.0000
vn 0.4134 0.9106 0.0000
usemtl Pipe
s off
f 18/1/1 5/2/1 6/3/1
f 31/4/2 18/1/2 19/5/2
f 1/6/1 24/7/1 12/8/1
f 3/9/1 13/10/1 2/11/1
f 22/12/1 9/13/1 10/14/1
f 19/5/1 6/3/1 7/15/1
f 4/16/1 15/17/1 3/9/1
f 23/18/1 10/14/1 11/19/1
f 2/11/1 14/20/1 1/6/1
f 20/21/1 7/22/1 8/23/1
f 17/24/1 4/16/1 5/2/1
f 24/7/1 11/19/1 12/8/1
f 9/13/1 20/21/1 8/23/1
f 28/25/3 15/17/3 16/26/3
f 35/27/4 22/12/4 23/18/4
f 32/28/5 19/29/5 20/21/5
f 29/30/6 16/26/6 17/24/6
f 36/31/7 23/18/7 24/7/7
f 13/10/8 26/32/8 14/20/8
f 33/33/9 20/21/9 21/34/9
f 30/35/10 17/24/10 18/1/10
f 14/20/11 36/31/11 24/7/11
f 27/36/12 13/10/12 15/17/12
f 34/37/13 21/34/13 22/12/13
f 37/38/14 40/39/14 38/40/14
f 41/41/15 40/39/15 39/42/15
f 43/43/16 42/44/16 41/41/16
f 43/43/17 46/45/17 44/46/17
f 49/47/18 52/48/18 50/49/18
f 47/50/19 46/45/19 45/51/19
f 37/38/20 48/52/20 47/50/20
f 41/41/1 39/42/1 47/50/1
f 53/53/21 52/48/21 51/54/21
f 55/55/22 54/56/22 53/53/22
f 57/57/23 56/58/23 55/55/23
f 59/59/24 58/60/24 57/57/24
f 49/47/25 60/61/25 59/59/25
f 53/53/1 51/54/1 59/59/1
f 61/62/26 64/63/26 62/64/26
f 65/65/27 64/63/27 63/66/27
f 67/67/28 66/68/28 65/65/28
f 69/69/29 68/70/29 67/67/29
f 71/71/30 70/72/30 69/69/30
f 61/62/31 72/73/31 71/71/31
f 65/65/1 63/66/1 71/71/1
f 73/74/32 76/75/32 74/76/32
f 77/77/33 76/75/33 75/78/33
f 79/79/34 78/80/34 77/77/34
f 81/81/35 80/82/35 79/79/35
f 83/83/36 82/84/36 81/81/36
f 73/74/37 84/85/37 83/83/37
f 77/77/1 75/78/1 83/83/1
f 85/86/38 88/87/38 86/88/38
f 89/89/39 88/87/39 87/90/39
f 91/91/40 90/92/40 89/89/40
f 91/91/41 94/93/41 92/94/41
f 95/95/42 94/93/42 93/96/42
f 85/86/43 96/97/43 95/95/43
f 89/89/1 87/90/1 95/95/1
f 97/98/44 100/99/44 98/100/44
f 99/101/45 102/102/45 100/99/45
f 103/103/46 102/102/46 101/104/46
f 105/105/47 104/106/47 103/103/47
f 107/107/48 106/108/48 105/105/48
f 97/98/49 108/109/49 107/107/49
f 101/104/1 99/101/1 107/107/1
f 109/110/44 112/111/44 110/112/44
f 113/113/45 112/111/45 111/114/45
f 115/115/46 114/116/46 113/113/46
f 117/117/47 116/118/47 115/115/47
f 119/119/48 118/120/48 117/117/48
f 109/110/49 120/121/49 119/119/49
f 113/113/1 111/114/1 119/119/1
f 121/122/50 124/123/50 122/124/50
f 125/125/51 124/123/51 123/126/51
f 127/127/52 126/128/52 125/125/52
f 129/129/53 128/130/53 127/127/53
f 131/131/54 130/132/54 129/129/54
f 121/122/55 132/133/55 131/131/55
f 125/125/1 123/126/1 131/131/1
f 33/134/56 35/135/56 26/136/56
f 1/137/8 134/138/8 2/139/8
f 8/140/9 141/141/9 9/142/9
f 5/143/10 138/144/10 6/145/10
f 12/146/11 133/147/11 1/137/11
f 2/139/12 135/148/12 3/149/12
f 9/142/13 142/150/13 10/151/13
f 6/145/2 139/152/2 7/153/2
f 3/149/3 136/154/3 4/155/3
f 10/151/4 143/156/4 11/157/4
f 7/158/5 140/159/5 8/140/5
f 4/155/6 137/160/6 5/143/6
f 11/157/7 144/161/7 12/146/7
f 133/147/1 146/162/1 134/138/1
f 140/159/1 153/163/1 141/141/1
f 138/144/1 149/164/1 150/165/1
f 144/161/1 145/166/1 133/147/1
f 134/138/1 147/167/1 135/148/1
f 141/141/1 154/168/1 142/150/1
f 138/144/1 151/169/1 139/152/1
f 135/148/1 148/170/1 136/154/1
f 143/156/1 154/168/1 155/171/1
f 139/172/1 152/173/1 140/159/1
f 137/160/1 148/170/1 149/164/1
f 144/161/1 155/171/1 156/174/1
f 155/175/10 168/176/10 156/177/10
f 145/178/5 158/179/5 146/180/5
f 152/181/12 165/182/12 153/183/12
f 149/184/7 162/185/7 150/186/7
f 156/177/2 157/187/2 145/178/2
f 146/180/9 159/188/9 147/189/9
f 154/190/3 165/182/3 166/191/3
f 150/186/11 163/192/11 151/193/11
f 147/189/13 160/194/13 148/195/13
f 154/190/6 167/196/6 155/175/6
f 151/197/8 164/198/8 152/181/8
f 148/195/4 161/199/4 149/184/4
f 167/200/1 163/201/1 159/202/1
f 18/1/1 17/24/1 5/2/1
f 31/4/2 30/35/2 18/1/2
f 1/6/1 14/20/1 24/7/1
f 3/9/1 15/17/1 13/10/1
f 22/12/1 21/34/1 9/13/1
f 19/5/1 18/1/1 6/3/1
f 4/16/1 16/26/1 15/17/1
f 23/18/1 22/12/1 10/14/1
f 2/11/1 13/10/1 14/20/1
f 20/21/1 19/29/1 7/22/1
f 17/24/1 16/26/1 4/16/1
f 24/7/1 23/18/1 11/19/1
f 9/13/1 21/34/1 20/21/1
f 28/25/3 27/36/3 15/17/3
f 35/27/4 34/37/4 22/12/4
f 32/28/5 31/203/5 19/29/5
f 29/30/6 28/25/6 16/26/6
f 36/31/7 35/27/7 23/18/7
f 13/10/8 25/204/8 26/32/8
f 33/33/9 32/28/9 20/21/9
f 30/35/10 29/30/10 17/24/10
f 14/20/11 26/32/11 36/31/11
f 27/36/12 25/204/12 13/10/12
f 34/37/13 33/33/13 21/34/13
f 37/38/14 39/42/14 40/39/14
f 41/41/15 42/44/15 40/39/15
f 43/43/16 44/46/16 42/44/16
f 43/43/17 45/51/17 46/45/17
f 49/47/18 51/54/18 52/48/18
f 47/50/19 48/52/19 46/45/19
f 37/38/20 38/40/20 48/52/20
f 39/42/1 37/38/1 47/50/1
f 47/50/1 45/51/1 43/43/1
f 43/43/1 41/41/1 47/50/1
f 53/53/57 54/56/57 52/48/57
f 55/55/22 56/58/22 54/56/22
f 57/57/23 58/60/23 56/58/23
f 59/59/24 60/61/24 58/60/24
f 49/47/25 50/49/25 60/61/25
f 51/54/1 49/47/1 59/59/1
f 59/59/1 57/57/1 55/55/1
f 55/55/1 53/53/1 59/59/1
f 61/62/26 63/66/26 64/63/26
f 65/65/27 66/68/27 64/63/27
f 67/67/28 68/70/28 66/68/28
f 69/69/58 70/72/58 68/70/58
f 71/71/30 72/73/30 70/72/30
f 61/62/31 62/64/31 72/73/31
f 63/66/1 61/62/1 71/71/1
f 71/71/1 69/69/1 67/67/1
f 67/67/1 65/65/1 71/71/1
f 73/74/32 75/78/32 76/75/32
f 77/77/33 78/80/33 76/75/33
f 79/79/34 80/82/34 78/80/34
f 81/81/35 82/84/35 80/82/35
f 83/83/36 84/85/36 82/84/36
f 73/74/37 74/76/37 84/85/37
f 75/78/1 73/74/1 83/83/1
f 83/83/1 81/81/1 79/79/1
f 79/79/1 77/77/1 83/83/1
f 85/86/38 87/90/38 88/87/38
f 89/89/39 90/92/39 88/87/39
f 91/91/40 92/94/40 90/92/40
f 91/91/41 93/96/41 94/93/41
f 95/95/42 96/97/42 94/93/42
f 85/86/43 86/88/43 96/97/43
f 87/90/1 85/86/1 95/95/1
f 95/95/1 93/96/1 91/91/1
f 91/91/1 89/89/1 95/95/1
f 97/98/44 99/101/44 100/99/44
f 99/101/45 101/104/45 102/102/45
f 103/103/46 104/106/46 102/102/46
f 105/105/47 106/108/47 104/106/47
f 107/107/48 108/109/48 106/108/48
f 97/98/49 98/100/49 108/109/49
f 99/101/1 97/98/1 107/107/1
f 107/107/1 105/105/1 103/103/1
f 103/103/1 101/104/1 107/107/1
f 109/110/44 111/114/44 112/111/44
f 113/113/45 114/116/45 112/111/45
f 115/115/46 116/118/46 114/116/46
f 117/117/47 118/120/47 116/118/47
f 119/119/48 120/121/48 118/120/48
f 109/110/49 110/112/49 120/121/49
f 111/114/1 109/110/1 119/119/1
f 119/119/1 117/117/1 115/115/1
f 115/115/1 113/113/1 119/119/1
f 121/122/50 123/126/50 124/123/50
f 125/125/51 126/128/51 124/123/51
f 127/127/52 128/130/52 126/128/52
f 129/129/53 130/132/53 128/130/53
f 131/131/54 132/133/54 130/132/54
f 121/122/55 122/124/55 132/133/55
f 123/126/1 121/122/1 131/131/1
f 131/131/1 129/129/1 127/127/1
f 127/127/1 125/125/1 131/131/1
f 26/136/56 25/205/56 29/206/56
f 25/205/56 27/207/56 29/206/56
f 27/207/56 28/208/56 29/206/56
f 29/206/56 30/209/56 31/210/56
f 31/210/56 32/211/56 33/134/56
f 33/134/56 34/212/56 35/135/56
f 35/135/56 36/213/56 26/136/56
f 29/206/56 31/210/56 26/136/56
f 31/210/56 33/134/56 26/136/56
f 1/137/8 133/147/8 134/138/8
f 8/140/9 140/159/9 141/141/9
f 5/143/10 137/160/10 138/144/10
f 12/146/11 144/161/11 133/147/11
f 2/139/12 134/138/12 135/148/12
f 9/142/13 141/141/13 142/150/13
f 6/145/2 138/144/2 139/152/2
f 3/149/3 135/148/3 136/154/3
f 10/151/4 142/150/4 143/156/4
f 7/158/5 139/172/5 140/159/5
f 4/155/6 136/154/6 137/160/6
f 11/157/7 143/156/7 144/161/7
f 133/147/1 145/166/1 146/162/1
f 140/159/1 152/173/1 153/163/1
f 138/144/1 137/160/1 149/164/1
f 144/161/1 156/174/1 145/166/1
f 134/138/1 146/162/1 147/167/1
f 141/141/1 153/163/1 154/168/1
f 138/144/1 150/165/1 151/169/1
f 135/148/1 147/167/1 148/170/1
f 143/156/1 142/150/1 154/168/1
f 139/172/1 151/214/1 152/173/1
f 137/160/1 136/154/1 148/170/1
f 144/161/1 143/156/1 155/171/1
f 155/175/10 167/196/10 168/176/10
f 145/178/5 157/187/5 158/179/5
f 152/181/12 164/198/12 165/182/12
f 149/184/7 161/199/7 162/185/7
f 156/177/2 168/176/2 157/187/2
f 146/180/9 158/179/9 159/188/9
f 154/190/3 153/183/3 165/182/3
f 150/186/11 162/185/11 163/192/11
f 147/189/13 159/188/13 160/194/13
f 154/190/6 166/191/6 167/196/6
f 151/197/8 163/215/8 164/198/8
f 148/195/4 160/194/4 161/199/4
f 159/202/1 158/216/1 157/217/1
f 157/217/1 168/218/1 159/202/1
f 168/218/1 167/200/1 159/202/1
f 167/200/1 166/219/1 163/201/1
f 166/219/1 165/220/1 163/201/1
f 165/220/1 164/221/1 163/201/1
f 163/201/1 162/222/1 159/202/1
f 162/222/1 161/223/1 159/202/1
f 161/223/1 160/224/1 159/202/1
