# Wavefront OBJ file made by Mineways version 9.17, http://mineways.com
# World: New World
# Terrain file name: C:\Users\kevin\Downloads\minewaysV1000\mineways\terrainExt.png
# Color scheme: Standard
# Mon Jun 13 15:57:06 2022

# Selection location min to max: 40, -63, -45 to 40, 319, -45
#   Non-empty selection location min to max: 40, -63, -45 to 40, -63, -45

# Set render type: Wavefront OBJ relative indices
# Units for the model vertex data itself: meters

# 16 vertices, 11 faces (22 triangles), 0 blocks, 2 billboards/bits
# block dimensions: X=2 by Y=2 (height) by Z=2 blocks
# Elevation shading: no
# Lighting: no
# Transparent water: no
# Map grid: no
# File type: Export all textures to three large images
# Texture output RGB: YES
# Texture output A: YES
# Texture output RGBA: YES
# OBJ relative coordinates
# Make groups objects: no
# Export separate objects: YES
# Individual blocks: no
#   Material per family: YES
#   Split by block type: YES
# G3D full material: YES
# Make Z the up direction instead of Y: no
# Create composite overlay faces: no
# Center model: YES
# Export lesser blocks: YES
# Fatten lesser blocks: no
# Create block faces at the borders: YES
# Make tree leaves solid: no
# Use biomes: no
# Rotate model 0.000000 degrees
# Scale model by making each block 1000 mm high
# Data operation options:
#   Fill air bubbles: no; Seal off entrances: no; Fill in isolated tunnels in base of model: no
#   Connect parts sharing an edge: no; Connect corner tips: no; Weld all shared edges: no
#   Delete floating objects: trees and parts smaller than 16 blocks: no
#   Hollow out bottom of model, making the walls 1000 mm thick: no; Superhollow: no
# Melt snow blocks: no
#   Debug: show separate parts as colors: no
#   Debug: show weld blocks in bright colors: no

# Full world path: C:\Users\kevin\AppData\Roaming\.minecraft\saves\New World
# Full terrainExt.png path: C:\Users\kevin\Downloads\minewaysV1000\mineways\terrainExt.png
# Full current path: C:\Users\kevin\Downloads\minewaysV1000\mineways

mtllib Mineways2Skfb.mtl

o New_World__40_-63_-45_to_40_319_-45
vn -1 0 0
vn 0 -1 0
vn 0 0 -1
vn 1 0 0
vn 0 1 0
vn 0 0 1
vn -0.707107 0 -0.707107
vn -0.707107 0 0.707107
vn 0.707107 0 -0.707107
vn 0.707107 0 0.707107
vn -0.707107 -0.707107 0
vn 0 -0.707107 -0.707107
vn 0.707107 -0.707107 0
vn 0 -0.707107 0.707107
vn -0.707107 0.707107 0
vn 0 0.707107 -0.707107
vn 0.707107 0.707107 0
vn 0 0.707107 0.707107
vn -0.92388 0 -0.382683
vn -0.92388 0 0.382683
vn 0.92388 0 -0.382683
vn 0.92388 0 0.382683
vn -0.382683 0 -0.92388
vn -0.382683 0 0.92388
vn 0.382683 0 -0.92388
vn 0.382683 0 0.92388
vn -0.397273 0.9177 0
vn 0.397273 -0.9177 0
vn 0.397273 0.9177 0
vn -0.397273 -0.9177 0
vn 0 0.9177 -0.397273
vn 0 -0.9177 0.397273
vn 0 0.9177 0.397273
vn 0 -0.9177 -0.397273
vn -0.440932 0.897541 0
vn 0.440932 -0.897541 0
vn 0.440932 0.897541 0
vn -0.440932 -0.897541 0
vn 0 0.897541 -0.440932
vn 0 -0.897541 0.440932
vn 0 0.897541 0.440932
vn 0 -0.897541 -0.440932
# oak_log
vt 0.359375000 0.983398438
vt 0.361328125 0.983398438
vt 0.361328125 0.997070312
vt 0.359375000 0.997070312
# oak_log_top
vt 0.376953125 0.990234375
vt 0.378906250 0.990234375
vt 0.378906250 0.992187500
vt 0.376953125 0.992187500
# oak_planks
vt 0.078125000 0.983398438
vt 0.080078125 0.983398438
vt 0.080078125 0.995117188
vt 0.078125000 0.995117188
vt 0.071289062 0.990234375
vt 0.086914062 0.990234375
vt 0.086914062 0.992187500
vt 0.071289062 0.992187500
vt 0.071289062 0.983398438
vt 0.086914062 0.983398438
vt 0.086914062 0.995117188
vt 0.071289062 0.995117188
v 0.229167 -2.98023e-08 0.229167
v 0.229167 -2.98023e-08 0.270833
v 0.229167 0.291667 0.229167
v 0.229167 0.291667 0.270833
v 0.270833 -2.98023e-08 0.229167
v 0.270833 -2.98023e-08 0.270833
v 0.270833 0.291667 0.229167
v 0.270833 0.291667 0.270833
v 0 0.291667 0.229167
v 0 0.291667 0.270833
v 0 0.541667 0.229167
v 0 0.541667 0.270833
v 0.5 0.291667 0.229167
v 0.5 0.291667 0.270833
v 0.5 0.541667 0.229167
v 0.5 0.541667 0.270833

g Oak_Sign
usemtl Oak_Sign
f -14/-17/-42 -16/-20/-42 -15/-19/-42 -13/-18/-42
f -15/-16/-41 -16/-13/-41 -12/-14/-41 -11/-15/-41
f -10/-17/-40 -12/-20/-40 -16/-19/-40 -14/-18/-40
f -10/-18/-39 -9/-17/-39 -11/-20/-39 -12/-19/-39
f -9/-18/-37 -13/-17/-37 -15/-20/-37 -11/-19/-37
f -6/-9/-42 -8/-12/-42 -7/-11/-42 -5/-10/-42
f -7/-8/-41 -8/-5/-41 -4/-6/-41 -3/-7/-41
f -2/-1/-40 -4/-4/-40 -8/-3/-40 -6/-2/-40
f -2/-10/-39 -1/-9/-39 -3/-12/-39 -4/-11/-39
f -2/-6/-38 -6/-5/-38 -5/-8/-38 -1/-7/-38
f -1/-2/-37 -5/-1/-37 -7/-4/-37 -3/-3/-37
